<mxfile host="app.diagrams.net" modified="2024-07-16T04:53:06.880Z" agent="Mozilla/5.0 (Windows NT 10.0; Win64; x64) AppleWebKit/537.36 (KHTML, like Gecko) Chrome/126.0.0.0 Safari/537.36" version="24.6.5" etag="vWb537olkLLs5iDcQoT1" type="github">
  <diagram name="Halaman-1" id="eoY9ntKmr5jQ2iBuqtNf">
    <mxGraphModel>
      <root>
        <mxCell id="0" />
        <mxCell id="1" parent="0" />
      </root>
    </mxGraphModel>
  </diagram>
</mxfile>
